<svg xmlns="http://www.w3.org/2000/svg" xmlns:xlink="http://www.w3.org/1999/xlink" width="500" zoomAndPan="magnify" viewBox="0 0 375 374.999991" height="500" preserveAspectRatio="xMidYMid meet" version="1.0"><defs><g/><clipPath id="d97de5f328"><path d="M 169 207 L 338 207 L 338 235 L 169 235 Z M 169 207 " clip-rule="nonzero"/></clipPath><clipPath id="f2a7d23700"><path d="M 167.917969 206.921875 L 335.542969 195.703125 L 337.84375 230.125 L 170.222656 241.347656 Z M 167.917969 206.921875 " clip-rule="nonzero"/></clipPath><clipPath id="4b541f1e56"><path d="M 170.226562 241.417969 L 337.851562 230.195312 L 335.546875 195.773438 L 167.921875 206.992188 Z M 170.226562 241.417969 " clip-rule="nonzero"/></clipPath><clipPath id="dd662aedff"><path d="M 170.226562 241.417969 L 337.851562 230.195312 L 335.546875 195.773438 L 167.921875 206.992188 Z M 170.226562 241.417969 " clip-rule="nonzero"/></clipPath></defs><rect x="-37.5" width="450" fill="#ffffff" y="-37.499999" height="449.999989" fill-opacity="1"/><rect x="-37.5" width="450" fill="#ffffff" y="-37.499999" height="449.999989" fill-opacity="1"/><g fill="#231f20" fill-opacity="1"><g transform="translate(77.029371, 219.374986)"><g><path d="M 88.640625 -74.828125 C 92.222656 -72.492188 94.832031 -69.570312 96.46875 -66.0625 C 98.101562 -62.5625 98.625 -58.859375 98.03125 -54.953125 C 97.25 -50.171875 95.515625 -45.90625 92.828125 -42.15625 C 90.148438 -38.425781 87.078125 -35.085938 83.609375 -32.140625 C 80.753906 -29.691406 77.78125 -27.40625 74.6875 -25.28125 C 71.59375 -23.15625 68.421875 -21.144531 65.171875 -19.25 C 60.941406 -16.757812 56.644531 -14.320312 52.28125 -11.9375 C 50.382812 -10.882812 48.488281 -9.84375 46.59375 -8.8125 C 46.507812 -8.726562 46.414062 -8.648438 46.3125 -8.578125 C 46.039062 -8.429688 45.78125 -8.320312 45.53125 -8.25 C 44.445312 -7.875 43.703125 -7.335938 43.296875 -6.640625 C 42.890625 -5.953125 42.675781 -5.15625 42.65625 -4.25 C 42.632812 -3.34375 42.675781 -2.398438 42.78125 -1.421875 C 42.8125 -0.953125 43.078125 -0.625 43.578125 -0.4375 C 44.097656 -0.25 44.640625 -0.09375 45.203125 0.03125 C 47.648438 0.550781 50.101562 1.050781 52.5625 1.53125 C 56.65625 2.382812 60.769531 3.238281 64.90625 4.09375 C 69.457031 5.019531 74 5.972656 78.53125 6.953125 C 81.289062 7.546875 84.066406 8.140625 86.859375 8.734375 C 87.640625 8.921875 88.398438 9.070312 89.140625 9.1875 C 90.003906 9.375 90.863281 9.5625 91.71875 9.75 C 92.351562 9.851562 92.984375 10.039062 93.609375 10.3125 C 93.796875 10.414062 93.957031 10.550781 94.09375 10.71875 C 94.226562 10.882812 94.269531 11.09375 94.21875 11.34375 C 94.1875 11.582031 94.109375 11.726562 93.984375 11.78125 C 93.859375 11.832031 93.71875 11.859375 93.5625 11.859375 C 93.039062 11.890625 92.5 11.851562 91.9375 11.75 C 89.601562 11.34375 87.257812 10.957031 84.90625 10.59375 C 81 9.976562 77.085938 9.265625 73.171875 8.453125 C 66.878906 7.117188 60.582031 5.800781 54.28125 4.5 C 52.945312 4.226562 51.59375 3.945312 50.21875 3.65625 C 48.207031 3.195312 46.160156 2.804688 44.078125 2.484375 C 43.179688 2.296875 42.734375 2.6875 42.734375 3.65625 C 42.703125 4.3125 42.6875 4.960938 42.6875 5.609375 C 42.6875 5.953125 42.6875 6.285156 42.6875 6.609375 C 42.5625 17.484375 42.453125 28.375 42.359375 39.28125 C 42.359375 39.394531 42.359375 39.53125 42.359375 39.6875 C 42.359375 40.09375 42.332031 40.5 42.28125 40.90625 C 42.207031 41.914062 41.644531 42.347656 40.59375 42.203125 C 39.53125 42.046875 38.941406 41.488281 38.828125 40.53125 C 38.753906 40.03125 38.734375 39.546875 38.765625 39.078125 C 38.765625 38.992188 38.765625 38.9375 38.765625 38.90625 C 38.734375 33.164062 38.675781 27.519531 38.59375 21.96875 C 38.53125 16.34375 38.5 10.628906 38.5 4.828125 C 38.5 4.566406 38.5 4.285156 38.5 3.984375 C 38.457031 3.492188 38.457031 3.015625 38.5 2.546875 C 38.53125 1.679688 38.140625 1.0625 37.328125 0.6875 C 37.242188 0.65625 37.148438 0.617188 37.046875 0.578125 C 36.398438 0.304688 35.78125 -0.0078125 35.1875 -0.375 C 33.445312 -1.53125 33.039062 -2.929688 33.96875 -4.578125 C 34.664062 -5.722656 35.597656 -6.625 36.765625 -7.28125 C 37.460938 -7.65625 37.929688 -8.144531 38.171875 -8.75 C 38.421875 -9.351562 38.546875 -10.078125 38.546875 -10.921875 C 38.515625 -20.378906 38.515625 -29.84375 38.546875 -39.3125 C 38.546875 -41.613281 38.546875 -43.921875 38.546875 -46.234375 C 38.546875 -46.335938 38.546875 -46.46875 38.546875 -46.625 C 38.546875 -47.476562 38.5625 -48.3125 38.59375 -49.125 C 38.707031 -50.175781 39.398438 -50.609375 40.671875 -50.421875 C 41.890625 -50.273438 42.519531 -49.640625 42.5625 -48.515625 C 42.5625 -47.835938 42.5625 -47.1875 42.5625 -46.5625 C 42.5625 -46.34375 42.5625 -46.125 42.5625 -45.90625 C 42.601562 -40.726562 42.625 -35.566406 42.625 -30.421875 C 42.625 -25.328125 42.644531 -20.222656 42.6875 -15.109375 C 42.6875 -15.078125 42.6875 -15.039062 42.6875 -15 C 42.6875 -14.144531 42.703125 -13.3125 42.734375 -12.5 C 42.796875 -11.6875 43.226562 -11.421875 44.03125 -11.703125 C 44.28125 -11.828125 44.535156 -11.960938 44.796875 -12.109375 C 44.835938 -12.109375 44.859375 -12.109375 44.859375 -12.109375 C 49.460938 -14.566406 54.03125 -17.113281 58.5625 -19.75 C 63.09375 -22.394531 67.5 -25.222656 71.78125 -28.234375 C 74.726562 -30.285156 77.539062 -32.492188 80.21875 -34.859375 C 82.90625 -37.234375 85.335938 -39.867188 87.515625 -42.765625 C 89.910156 -45.859375 91.648438 -49.328125 92.734375 -53.171875 C 93.441406 -55.691406 93.625 -58.347656 93.28125 -61.140625 C 92.6875 -65.390625 90.695312 -68.988281 87.3125 -71.9375 C 85.707031 -73.300781 83.972656 -74.398438 82.109375 -75.234375 C 75.285156 -78.429688 68.457031 -80.066406 61.625 -80.140625 C 54.800781 -80.222656 48.234375 -79.113281 41.921875 -76.8125 C 35.609375 -74.519531 29.828125 -71.398438 24.578125 -67.453125 C 19.328125 -63.515625 14.84375 -59.097656 11.125 -54.203125 C 9.664062 -52.535156 8.394531 -50.71875 7.3125 -48.75 C 6.570312 -47.507812 5.910156 -46.238281 5.328125 -44.9375 C 4.753906 -43.632812 4.375 -42.222656 4.1875 -40.703125 C 4.15625 -40.328125 4.015625 -40.0625 3.765625 -39.90625 C 3.523438 -39.757812 3.234375 -39.710938 2.890625 -39.765625 C 2.453125 -39.765625 2.03125 -39.832031 1.625 -39.96875 C 0.757812 -40.269531 0.3125 -40.867188 0.28125 -41.765625 C 0.25 -42.953125 0.453125 -44.085938 0.890625 -45.171875 C 2.347656 -49.203125 4.457031 -52.800781 7.21875 -55.96875 C 11.457031 -60.9375 16.460938 -65.421875 22.234375 -69.421875 C 28.015625 -73.429688 34.28125 -76.597656 41.03125 -78.921875 C 47.78125 -81.253906 54.769531 -82.394531 62 -82.34375 C 69.226562 -82.289062 76.414062 -80.71875 83.5625 -77.625 C 85.320312 -76.84375 87.015625 -75.910156 88.640625 -74.828125 Z M 88.640625 -74.828125 "/></g></g></g><g fill="#231f20" fill-opacity="1"><g transform="translate(156.013672, 219.374986)"><g><path d="M 28.71875 -13.046875 C 28.257812 -11.628906 27.335938 -10 25.953125 -8.15625 C 24.578125 -6.320312 22.859375 -5.140625 20.796875 -4.609375 C 18.734375 -4.085938 16.945312 -4.160156 15.4375 -4.828125 C 13.925781 -5.503906 13.097656 -7.296875 12.953125 -10.203125 C 11.242188 -6.890625 9.613281 -4.765625 8.0625 -3.828125 C 6.507812 -2.898438 4.894531 -2.546875 3.21875 -2.765625 C 1.320312 -3.066406 0.0390625 -3.800781 -0.625 -4.96875 C -1.289062 -6.144531 -1.515625 -7.5 -1.296875 -9.03125 C -1.078125 -10.5625 -0.609375 -12.03125 0.109375 -13.4375 C 0.660156 -14.476562 1.429688 -15.445312 2.421875 -16.34375 C 3.410156 -17.25 4.445312 -17.953125 5.53125 -18.453125 C 6.875 -19.128906 8.222656 -19.453125 9.578125 -19.421875 C 10.929688 -19.390625 12.378906 -18.941406 13.921875 -18.078125 C 13.953125 -18.046875 13.96875 -18.082031 13.96875 -18.1875 C 13.96875 -18.332031 14.003906 -18.519531 14.078125 -18.75 C 14.148438 -18.976562 14.28125 -19.160156 14.46875 -19.296875 C 14.976562 -19.671875 15.578125 -19.859375 16.265625 -19.859375 C 16.960938 -19.859375 17.5 -19.507812 17.875 -18.8125 C 17.945312 -17.914062 17.851562 -16.773438 17.59375 -15.390625 C 17.039062 -12.335938 17.039062 -10.144531 17.59375 -8.8125 C 18.15625 -7.476562 19.140625 -6.851562 20.546875 -6.9375 C 21.960938 -7.03125 23.796875 -8.425781 26.046875 -11.125 C 28.296875 -13.832031 29.1875 -14.472656 28.71875 -13.046875 Z M 3.734375 -5.890625 C 4.515625 -5.328125 5.40625 -5.398438 6.40625 -6.109375 C 7.414062 -6.828125 8.382812 -7.835938 9.3125 -9.140625 C 10.25 -10.441406 11.035156 -11.742188 11.671875 -13.046875 C 12.304688 -14.347656 12.65625 -15.316406 12.71875 -15.953125 C 10.820312 -16.960938 9.195312 -17.132812 7.84375 -16.46875 C 6.488281 -15.800781 5.410156 -14.707031 4.609375 -13.1875 C 3.804688 -11.675781 3.328125 -10.203125 3.171875 -8.765625 C 3.023438 -7.335938 3.210938 -6.378906 3.734375 -5.890625 Z M 3.734375 -5.890625 "/></g></g></g><g fill="#231f20" fill-opacity="1"><g transform="translate(182.925711, 219.374986)"><g><path d="M 26.578125 -9.75 C 24.597656 -7.226562 22.753906 -5.601562 21.046875 -4.875 C 19.335938 -4.144531 17.789062 -3.96875 16.40625 -4.34375 C 15.03125 -4.71875 13.835938 -5.320312 12.828125 -6.15625 C 11.828125 -7 11.085938 -7.710938 10.609375 -8.296875 C 10.421875 -8.484375 10.285156 -8.613281 10.203125 -8.6875 C 11.472656 -6.71875 12.363281 -4.148438 12.875 -0.984375 C 13.382812 2.179688 13.375 4.957031 12.84375 7.34375 C 12.351562 9.132812 11.398438 10.25 9.984375 10.6875 C 8.578125 11.125 7.113281 10.769531 5.59375 9.625 C 4.6875 8.84375 3.972656 7.910156 3.453125 6.828125 C 2.554688 5.085938 1.890625 3.269531 1.453125 1.375 C 0.734375 -1.351562 0.269531 -4.113281 0.0625 -6.90625 C -0.132812 -9.695312 -0.195312 -12.507812 -0.125 -15.34375 C 0.03125 -19.40625 0.441406 -23.425781 1.109375 -27.40625 C 1.773438 -31.394531 2.648438 -35.363281 3.734375 -39.3125 C 4.378906 -41.84375 5.273438 -44.789062 6.421875 -48.15625 C 7.578125 -51.53125 9 -54.742188 10.6875 -57.796875 C 12.382812 -60.859375 14.363281 -63.203125 16.625 -64.828125 C 17.613281 -65.535156 18.695312 -66 19.875 -66.21875 C 22.925781 -66.707031 25.085938 -66.347656 26.359375 -65.140625 C 27.628906 -63.929688 28.195312 -62.113281 28.0625 -59.6875 C 27.9375 -57.269531 27.332031 -54.488281 26.25 -51.34375 C 25.164062 -48.195312 23.796875 -44.945312 22.140625 -41.59375 C 20.484375 -38.238281 18.769531 -35.015625 17 -31.921875 C 15.226562 -28.835938 13.585938 -26.128906 12.078125 -23.796875 C 10.578125 -21.472656 9.421875 -19.769531 8.609375 -18.6875 C 8.367188 -18.351562 8.109375 -18 7.828125 -17.625 C 7.703125 -17.4375 7.546875 -17.234375 7.359375 -17.015625 C 10.003906 -13.191406 12.34375 -10.566406 14.375 -9.140625 C 16.40625 -7.722656 18.171875 -7.097656 19.671875 -7.265625 C 21.179688 -7.429688 22.46875 -7.976562 23.53125 -8.90625 C 24.601562 -9.84375 25.46875 -10.773438 26.125 -11.703125 C 26.832031 -12.640625 27.359375 -13.109375 27.703125 -13.109375 C 28.222656 -12.953125 28.320312 -12.546875 28 -11.890625 C 27.6875 -11.242188 27.210938 -10.53125 26.578125 -9.75 Z M 4.84375 -21.4375 C 4.695312 -20.351562 4.726562 -19.660156 4.9375 -19.359375 C 5.144531 -19.066406 5.625 -19.441406 6.375 -20.484375 C 7.519531 -22.078125 8.945312 -24.234375 10.65625 -26.953125 C 12.375 -29.671875 14.160156 -32.679688 16.015625 -35.984375 C 17.878906 -39.285156 19.554688 -42.628906 21.046875 -46.015625 C 22.535156 -49.398438 23.613281 -52.5625 24.28125 -55.5 C 24.957031 -58.445312 25 -60.90625 24.40625 -62.875 C 24.113281 -63.695312 23.59375 -64.203125 22.84375 -64.390625 C 22.101562 -64.578125 21.300781 -64.441406 20.4375 -63.984375 C 18.613281 -62.953125 16.9375 -61.109375 15.40625 -58.453125 C 13.882812 -55.804688 12.519531 -52.742188 11.3125 -49.265625 C 10.101562 -45.785156 9.050781 -42.226562 8.15625 -38.59375 C 7.257812 -34.96875 6.53125 -31.632812 5.96875 -28.59375 C 5.40625 -25.5625 5.03125 -23.175781 4.84375 -21.4375 Z M 6.140625 1.46875 C 6.804688 4.039062 7.390625 5.878906 7.890625 6.984375 C 8.398438 8.085938 8.738281 8.1875 8.90625 7.28125 C 9.082031 6.382812 9.035156 4.242188 8.765625 0.859375 C 8.546875 -1.742188 8.117188 -4.492188 7.484375 -7.390625 C 6.847656 -10.296875 5.988281 -12.628906 4.90625 -14.390625 C 4.5 -12.628906 4.425781 -10.195312 4.6875 -7.09375 C 4.945312 -3.988281 5.429688 -1.132812 6.140625 1.46875 Z M 6.140625 1.46875 "/></g></g></g><g fill="#231f20" fill-opacity="1"><g transform="translate(209.507702, 219.374986)"><g><path d="M 28.71875 -13.046875 C 28.257812 -11.628906 27.335938 -10 25.953125 -8.15625 C 24.578125 -6.320312 22.859375 -5.140625 20.796875 -4.609375 C 18.734375 -4.085938 16.945312 -4.160156 15.4375 -4.828125 C 13.925781 -5.503906 13.097656 -7.296875 12.953125 -10.203125 C 11.242188 -6.890625 9.613281 -4.765625 8.0625 -3.828125 C 6.507812 -2.898438 4.894531 -2.546875 3.21875 -2.765625 C 1.320312 -3.066406 0.0390625 -3.800781 -0.625 -4.96875 C -1.289062 -6.144531 -1.515625 -7.5 -1.296875 -9.03125 C -1.078125 -10.5625 -0.609375 -12.03125 0.109375 -13.4375 C 0.660156 -14.476562 1.429688 -15.445312 2.421875 -16.34375 C 3.410156 -17.25 4.445312 -17.953125 5.53125 -18.453125 C 6.875 -19.128906 8.222656 -19.453125 9.578125 -19.421875 C 10.929688 -19.390625 12.378906 -18.941406 13.921875 -18.078125 C 13.953125 -18.046875 13.96875 -18.082031 13.96875 -18.1875 C 13.96875 -18.332031 14.003906 -18.519531 14.078125 -18.75 C 14.148438 -18.976562 14.28125 -19.160156 14.46875 -19.296875 C 14.976562 -19.671875 15.578125 -19.859375 16.265625 -19.859375 C 16.960938 -19.859375 17.5 -19.507812 17.875 -18.8125 C 17.945312 -17.914062 17.851562 -16.773438 17.59375 -15.390625 C 17.039062 -12.335938 17.039062 -10.144531 17.59375 -8.8125 C 18.15625 -7.476562 19.140625 -6.851562 20.546875 -6.9375 C 21.960938 -7.03125 23.796875 -8.425781 26.046875 -11.125 C 28.296875 -13.832031 29.1875 -14.472656 28.71875 -13.046875 Z M 3.734375 -5.890625 C 4.515625 -5.328125 5.40625 -5.398438 6.40625 -6.109375 C 7.414062 -6.828125 8.382812 -7.835938 9.3125 -9.140625 C 10.25 -10.441406 11.035156 -11.742188 11.671875 -13.046875 C 12.304688 -14.347656 12.65625 -15.316406 12.71875 -15.953125 C 10.820312 -16.960938 9.195312 -17.132812 7.84375 -16.46875 C 6.488281 -15.800781 5.410156 -14.707031 4.609375 -13.1875 C 3.804688 -11.675781 3.328125 -10.203125 3.171875 -8.765625 C 3.023438 -7.335938 3.210938 -6.378906 3.734375 -5.890625 Z M 3.734375 -5.890625 "/></g></g></g><g fill="#231f20" fill-opacity="1"><g transform="translate(236.419741, 219.374986)"><g><path d="M 24.484375 -12.265625 C 24.847656 -12.484375 25.207031 -12.648438 25.5625 -12.765625 C 25.925781 -12.890625 26.160156 -12.882812 26.265625 -12.75 C 26.378906 -12.613281 26.234375 -12.304688 25.828125 -11.828125 C 24.554688 -10.378906 23.035156 -9.046875 21.265625 -7.828125 C 19.492188 -6.617188 17.675781 -5.601562 15.8125 -4.78125 C 14.363281 -4.113281 12.828125 -3.582031 11.203125 -3.1875 C 9.585938 -2.800781 7.988281 -2.71875 6.40625 -2.9375 C 4.820312 -3.164062 3.378906 -3.867188 2.078125 -5.046875 C 0.0976562 -6.878906 -0.71875 -9.113281 -0.375 -11.75 C -0.09375 -13.851562 0.71875 -15.632812 2.0625 -17.09375 C 3.414062 -18.5625 5.113281 -19.554688 7.15625 -20.078125 C 8.863281 -20.453125 10.578125 -20.5 12.296875 -20.21875 C 13.066406 -20.09375 13.773438 -19.828125 14.421875 -19.421875 C 15.015625 -18.960938 15.335938 -18.425781 15.390625 -17.8125 C 15.453125 -17.207031 15.222656 -16.628906 14.703125 -16.078125 C 13.617188 -15.109375 12.363281 -14.53125 10.9375 -14.34375 C 9.351562 -14.070312 7.753906 -13.90625 6.140625 -13.84375 C 5.367188 -13.84375 4.820312 -13.679688 4.5 -13.359375 C 4.1875 -13.035156 4.007812 -12.484375 3.96875 -11.703125 C 3.707031 -9.585938 4.382812 -7.863281 6 -6.53125 C 6.988281 -5.726562 8.195312 -5.382812 9.625 -5.5 C 11.0625 -5.625 12.582031 -6.007812 14.1875 -6.65625 C 15.800781 -7.3125 17.378906 -8.078125 18.921875 -8.953125 C 20.460938 -9.828125 21.847656 -10.648438 23.078125 -11.421875 C 23.609375 -11.765625 24.078125 -12.046875 24.484375 -12.265625 Z M 6.828125 -16.78125 C 6.828125 -16.75 6.800781 -16.734375 6.75 -16.734375 C 6.6875 -16.660156 6.597656 -16.578125 6.484375 -16.484375 C 6.378906 -16.398438 6.28125 -16.3125 6.1875 -16.21875 C 6.09375 -16.125 6.046875 -16.054688 6.046875 -16.015625 C 6.078125 -15.898438 6.378906 -15.867188 6.953125 -15.921875 C 7.535156 -15.984375 8.171875 -16.085938 8.859375 -16.234375 C 9.554688 -16.378906 10.132812 -16.570312 10.59375 -16.8125 C 11.0625 -17.0625 11.203125 -17.359375 11.015625 -17.703125 C 10.929688 -17.796875 10.828125 -17.878906 10.703125 -17.953125 C 10.578125 -18.035156 10.4375 -18.09375 10.28125 -18.125 C 9.601562 -18.125 8.984375 -17.992188 8.421875 -17.734375 C 7.867188 -17.472656 7.335938 -17.15625 6.828125 -16.78125 Z M 6.828125 -16.78125 "/></g></g></g><g fill="#231f20" fill-opacity="1"><g transform="translate(260.996018, 219.374986)"><g><path d="M 18.328125 -11.828125 C 18.617188 -12.523438 18.929688 -12.875 19.265625 -12.875 C 19.609375 -12.875 19.722656 -12.523438 19.609375 -11.828125 C 19.046875 -10.109375 18.375 -8.457031 17.59375 -6.875 C 16.8125 -5.289062 15.753906 -3.867188 14.421875 -2.609375 C 13.410156 -1.597656 12.203125 -0.945312 10.796875 -0.65625 C 8.878906 -0.382812 7.296875 -0.613281 6.046875 -1.34375 C 4.804688 -2.070312 3.820312 -3.117188 3.09375 -4.484375 C 2.363281 -5.847656 1.820312 -7.335938 1.46875 -8.953125 C 1.113281 -10.566406 0.882812 -12.132812 0.78125 -13.65625 C 0.507812 -16.539062 0.3125 -20.328125 0.1875 -25.015625 C 0.0625 -29.703125 0.109375 -34.660156 0.328125 -39.890625 C 0.546875 -45.117188 1.054688 -49.96875 1.859375 -54.4375 C 2.671875 -58.90625 3.851562 -62.367188 5.40625 -64.828125 C 6.300781 -66.023438 7.34375 -66.628906 8.53125 -66.640625 C 9.726562 -66.660156 10.796875 -66.113281 11.734375 -65 C 12.359375 -64.132812 12.832031 -63.21875 13.15625 -62.25 C 13.476562 -61.289062 13.6875 -60.3125 13.78125 -59.3125 C 14.125 -55.875 14.082031 -52.242188 13.65625 -48.421875 C 13.238281 -44.609375 12.570312 -40.535156 11.65625 -36.203125 C 10.738281 -31.867188 9.644531 -28.050781 8.375 -24.75 C 7.101562 -21.457031 6.046875 -18.84375 5.203125 -16.90625 C 4.742188 -16.132812 4.578125 -14.957031 4.703125 -13.375 C 4.847656 -11.664062 5.171875 -9.878906 5.671875 -8.015625 C 6.171875 -6.160156 6.867188 -4.691406 7.765625 -3.609375 C 8.617188 -2.710938 9.566406 -2.429688 10.609375 -2.765625 C 11.660156 -3.109375 12.707031 -3.820312 13.75 -4.90625 C 14.789062 -5.988281 15.707031 -7.164062 16.5 -8.4375 C 17.300781 -9.71875 17.910156 -10.847656 18.328125 -11.828125 Z M 4.796875 -37.8125 C 4.691406 -36.6875 4.59375 -34.992188 4.5 -32.734375 C 4.414062 -30.484375 4.328125 -28.1875 4.234375 -25.84375 C 4.171875 -23.238281 4.097656 -21.207031 4.015625 -19.75 C 4.835938 -21.613281 5.800781 -24.320312 6.90625 -27.875 C 8.007812 -31.4375 9.015625 -35.628906 9.921875 -40.453125 C 10.828125 -45.273438 11.414062 -50.492188 11.6875 -56.109375 C 11.53125 -59.398438 11.132812 -61.628906 10.5 -62.796875 C 9.863281 -63.960938 9.171875 -64.0625 8.421875 -63.09375 C 7.679688 -62.132812 7.09375 -60.101562 6.65625 -57 C 5.976562 -51.875 5.453125 -46.738281 5.078125 -41.59375 C 4.972656 -40.320312 4.878906 -39.0625 4.796875 -37.8125 Z M 4.796875 -37.8125 "/></g></g></g><g fill="#231f20" fill-opacity="1"><g transform="translate(279.047401, 219.374986)"><g><path d="M 19.5 -13.890625 C 19.75 -14.140625 19.882812 -13.828125 19.90625 -12.953125 C 19.925781 -12.085938 19.132812 -10.867188 17.53125 -9.296875 C 15.9375 -7.734375 14.28125 -6.992188 12.5625 -7.078125 C 12.195312 -7.117188 11.878906 -7.09375 11.609375 -7 C 11.347656 -6.90625 11.125 -6.6875 10.9375 -6.34375 C 10.757812 -6.039062 10.539062 -5.765625 10.28125 -5.515625 C 10.28125 -5.515625 10.265625 -5.492188 10.234375 -5.453125 C 9.179688 -4.335938 7.945312 -3.601562 6.53125 -3.25 C 5.125 -2.894531 3.785156 -3.003906 2.515625 -3.578125 C 1.242188 -4.148438 0.328125 -5.242188 -0.234375 -6.859375 C -0.640625 -8.316406 -0.671875 -9.765625 -0.328125 -11.203125 C -0.0351562 -12.472656 0.425781 -13.664062 1.0625 -14.78125 C 1.84375 -16.269531 2.851562 -17.320312 4.09375 -17.9375 C 5.34375 -18.550781 6.753906 -18.894531 8.328125 -18.96875 C 10.660156 -19.082031 12.132812 -17.984375 12.75 -15.671875 C 13.125 -14.328125 13.21875 -12.972656 13.03125 -11.609375 C 12.976562 -11.296875 12.914062 -10.972656 12.84375 -10.640625 C 12.78125 -10.421875 12.722656 -10.203125 12.671875 -9.984375 C 12.597656 -9.234375 12.921875 -8.894531 13.640625 -8.96875 C 15.597656 -9.300781 17.550781 -10.941406 19.5 -13.890625 Z M 5.6875 -5.234375 C 6.882812 -5.785156 7.722656 -6.734375 8.203125 -8.078125 C 6.203125 -9.347656 4.863281 -11.175781 4.1875 -13.5625 C 3.5625 -12.445312 3.179688 -11.144531 3.046875 -9.65625 C 2.910156 -8.164062 3.054688 -6.929688 3.484375 -5.953125 C 3.921875 -4.984375 4.65625 -4.742188 5.6875 -5.234375 Z M 9.109375 -10.71875 C 9.429688 -11.1875 9.625 -11.769531 9.6875 -12.46875 C 9.75 -13.164062 9.710938 -13.851562 9.578125 -14.53125 C 9.453125 -15.21875 9.273438 -15.753906 9.046875 -16.140625 C 8.816406 -16.535156 8.578125 -16.65625 8.328125 -16.5 C 7.867188 -16.09375 7.613281 -15.507812 7.5625 -14.75 C 7.507812 -13.988281 7.625 -13.226562 7.90625 -12.46875 C 8.1875 -11.707031 8.585938 -11.125 9.109375 -10.71875 Z M 9.109375 -10.71875 "/></g></g></g><g clip-path="url(#d97de5f328)"><g clip-path="url(#f2a7d23700)"><g clip-path="url(#4b541f1e56)"><g clip-path="url(#dd662aedff)"><path fill="#231f20" d="M 171.304688 220.207031 C 170.898438 219.773438 170.21875 219.753906 169.789062 220.15625 C 169.355469 220.5625 169.332031 221.234375 169.738281 221.664062 C 172.257812 224.347656 174.484375 226.398438 176.851562 228.035156 L 176.921875 228.078125 C 179.28125 229.703125 181.761719 230.898438 184.789062 231.871094 C 204.183594 238.105469 229.792969 229.710938 254.753906 221.527344 C 289.457031 210.148438 322.894531 199.1875 335.117188 229.5 C 335.335938 230.046875 335.960938 230.316406 336.511719 230.09375 C 337.0625 229.875 337.328125 229.253906 337.105469 228.707031 C 324.136719 196.539062 289.765625 207.808594 254.089844 219.503906 C 229.449219 227.585938 204.179688 235.871094 185.4375 229.847656 C 182.621094 228.941406 180.3125 227.832031 178.132812 226.332031 L 178.070312 226.285156 C 175.855469 224.75 173.730469 222.789062 171.308594 220.207031 Z M 171.304688 220.207031 " fill-opacity="1" fill-rule="evenodd"/></g></g></g></g></svg>